if (_typeface_js && _typeface_js.loadFace) _typeface_js.loadFace({"glyphs":{"S":{"x_min":68.46875,"x_max":571.953125,"ha":637,"o":"m 324 937 q 430 924 380 937 q 531 885 480 911 l 531 860 q 430 903 479 889 q 324 918 380 918 q 217 894 266 918 q 138 826 167 870 q 108 721 108 781 q 138 619 108 660 q 212 552 168 577 q 318 502 255 527 q 446 443 395 472 q 534 362 497 413 q 571 235 571 311 q 535 104 571 160 q 438 18 499 48 q 304 -11 377 -11 q 181 5 239 -11 q 68 56 124 23 l 68 82 q 181 27 124 46 q 304 7 239 7 q 425 35 369 7 q 515 114 481 62 q 548 233 548 165 q 514 350 548 302 q 430 425 479 398 q 310 481 381 453 q 197 533 243 508 q 119 605 152 559 q 85 719 85 651 q 118 836 85 787 q 204 911 150 885 q 324 937 259 937 "},"F":{"x_min":132.140625,"x_max":618.25,"ha":637,"o":"m 560 482 l 560 462 l 155 462 l 155 0 l 132 0 l 132 925 l 618 925 l 618 906 l 155 906 l 155 482 l 560 482 "},"T":{"x_min":45.328125,"x_max":762.921875,"ha":809,"o":"m 392 0 l 392 906 l 45 906 l 45 925 l 762 925 l 762 906 l 415 906 l 415 0 l 392 0 "},"N":{"x_min":132.140625,"x_max":849.734375,"ha":984,"o":"m 155 0 l 132 0 l 132 925 l 161 925 l 826 31 l 826 925 l 849 925 l 849 0 l 820 0 l 155 895 l 155 0 "},"K":{"x_min":132.140625,"x_max":676.109375,"ha":694,"o":"m 155 925 l 155 0 l 132 0 l 132 925 l 155 925 m 166 491 l 586 925 l 618 925 l 198 491 l 676 0 l 644 0 l 166 491 "},"Y":{"x_min":45.328125,"x_max":762.921875,"ha":809,"o":"m 392 459 l 45 925 l 74 925 l 404 482 l 733 925 l 762 925 l 415 459 l 415 0 l 392 0 l 392 459 "},"E":{"x_min":132.140625,"x_max":618.25,"ha":666,"o":"m 560 482 l 560 462 l 155 462 l 155 19 l 618 19 l 618 0 l 132 0 l 132 925 l 618 925 l 618 906 l 155 906 l 155 482 l 560 482 "},"V":{"x_min":91.625,"x_max":832.359375,"ha":925,"o":"m 114 925 l 462 29 l 809 925 l 832 925 l 473 0 l 450 0 l 91 925 l 114 925 "},"Z":{"x_min":45.328125,"x_max":762.921875,"ha":809,"o":"m 762 0 l 45 0 l 45 19 l 733 906 l 45 906 l 45 925 l 762 925 l 762 906 l 75 19 l 762 19 l 762 0 "},"Q":{"x_min":45.328125,"x_max":994.40625,"ha":1042,"o":"m 994 462 q 954 271 994 361 q 843 115 914 182 l 994 0 l 960 0 l 827 102 q 685 18 764 48 q 519 -11 606 -11 q 281 52 390 -11 q 108 224 172 115 q 45 462 45 333 q 108 701 45 592 q 281 873 172 810 q 519 937 390 937 q 758 873 649 937 q 930 701 867 810 q 994 462 994 592 m 519 7 q 676 35 601 7 q 811 114 750 63 l 508 347 l 542 347 l 826 129 q 932 279 894 192 q 971 462 971 366 q 910 690 971 586 q 746 856 849 794 q 519 918 642 918 q 293 856 397 918 q 129 690 190 794 q 68 462 68 586 q 129 235 68 339 q 293 69 190 131 q 519 7 397 7 "},"M":{"x_min":132.140625,"x_max":965.46875,"ha":1100,"o":"m 560 347 l 537 347 l 155 892 l 155 0 l 132 0 l 132 925 l 161 925 l 548 369 l 936 925 l 965 925 l 965 0 l 942 0 l 942 894 l 560 347 "},"C":{"x_min":45.328125,"x_max":878.65625,"ha":925,"o":"m 519 937 q 719 894 625 937 q 878 773 812 850 l 878 736 q 720 869 815 819 q 519 918 626 918 q 293 856 397 918 q 129 690 190 794 q 68 462 68 586 q 129 235 68 339 q 293 69 190 131 q 519 7 397 7 q 720 56 626 7 q 878 188 815 105 l 878 152 q 719 31 812 75 q 519 -11 625 -11 q 281 52 390 -11 q 108 224 172 115 q 45 462 45 333 q 108 701 45 592 q 281 873 172 810 q 519 937 390 937 "},"L":{"x_min":161.0625,"x_max":647.1875,"ha":694,"o":"m 161 0 l 161 925 l 184 925 l 184 19 l 647 19 l 647 0 l 161 0 "},"A":{"x_min":91.625,"x_max":832.359375,"ha":925,"o":"m 450 925 l 473 925 l 832 0 l 809 0 l 674 348 l 249 348 l 114 0 l 91 0 l 450 925 m 462 896 l 257 367 l 666 367 l 462 896 "},"J":{"x_min":5.78125,"x_max":445.609375,"ha":579,"o":"m 445 245 q 411 108 445 166 q 318 19 377 50 q 188 -11 260 -11 q 89 8 136 -11 q 5 63 42 27 l 5 97 q 86 32 39 56 q 188 8 134 8 q 306 37 253 8 q 391 120 359 66 q 422 245 422 173 l 422 925 l 445 925 l 445 245 "},"O":{"x_min":45.328125,"x_max":994.40625,"ha":1042,"o":"m 519 937 q 758 873 649 937 q 930 701 867 810 q 994 462 994 592 q 930 224 994 333 q 758 52 867 115 q 519 -11 649 -11 q 281 52 390 -11 q 108 224 172 115 q 45 462 45 333 q 108 701 45 592 q 281 873 172 810 q 519 937 390 937 m 519 918 q 293 856 397 918 q 129 690 190 794 q 68 462 68 586 q 129 235 68 339 q 293 69 190 131 q 519 7 397 7 q 746 69 642 7 q 910 235 849 131 q 971 462 971 339 q 910 690 971 586 q 746 856 849 794 q 519 918 642 918 "},"W":{"x_min":103.203125,"x_max":1283.75,"ha":1389,"o":"m 415 0 l 392 0 l 103 925 l 126 925 l 404 36 l 681 925 l 705 925 l 982 36 l 1260 925 l 1283 925 l 994 0 l 971 0 l 693 889 l 415 0 "}," ":{"x_min":0,"x_max":0,"ha":579},"X":{"x_min":45.328125,"x_max":762.921875,"ha":809,"o":"m 404 462 l 74 0 l 45 0 l 389 483 l 74 925 l 103 925 l 404 503 l 705 925 l 733 925 l 418 483 l 762 0 l 733 0 l 404 462 "},"P":{"x_min":132.140625,"x_max":618.25,"ha":694,"o":"m 381 925 q 500 894 445 925 q 586 807 554 862 q 618 689 618 753 q 586 570 618 625 q 500 484 554 516 q 381 452 445 452 l 155 452 l 155 0 l 132 0 l 132 925 l 381 925 m 381 471 q 489 501 439 471 q 568 580 539 530 q 597 689 597 630 q 568 798 597 748 q 489 877 539 847 q 381 906 439 906 l 155 906 l 155 471 l 381 471 "},"B":{"x_min":132.140625,"x_max":647.1875,"ha":694,"o":"m 367 925 q 478 896 427 925 q 559 815 529 866 q 589 704 589 763 q 549 577 589 634 q 446 496 510 520 q 549 449 503 485 q 621 362 595 414 q 647 250 647 310 q 613 124 647 182 q 522 33 579 67 q 396 0 464 0 l 132 0 l 132 925 l 367 925 m 364 501 q 465 528 419 501 q 539 601 512 555 q 566 703 566 648 q 539 804 566 758 q 465 879 512 851 q 364 906 418 906 l 155 906 l 155 501 l 364 501 m 393 19 q 509 50 456 19 q 593 135 562 81 q 624 251 624 189 q 593 367 624 314 q 509 451 562 420 q 393 482 456 482 l 155 482 l 155 19 l 393 19 "},"H":{"x_min":132.140625,"x_max":849.734375,"ha":984,"o":"m 155 462 l 155 0 l 132 0 l 132 925 l 155 925 l 155 482 l 826 482 l 826 925 l 849 925 l 849 0 l 826 0 l 826 462 l 155 462 "},"D":{"x_min":132.140625,"x_max":936.53125,"ha":984,"o":"m 473 925 q 705 863 598 925 q 874 694 812 801 q 936 462 936 588 q 874 231 936 337 q 705 62 812 124 q 473 0 598 0 l 132 0 l 132 925 l 473 925 m 473 19 q 693 79 593 19 q 854 241 794 139 q 913 462 913 343 q 854 683 913 582 q 693 844 794 785 q 473 904 593 904 l 155 904 l 155 19 l 473 19 "},"R":{"x_min":149.5,"x_max":694.4375,"ha":753,"o":"m 399 925 q 517 894 462 925 q 603 807 571 862 q 635 689 635 753 q 606 574 635 627 q 525 489 576 521 q 413 452 474 456 l 694 0 l 668 0 l 387 452 l 172 452 l 172 0 l 149 0 l 149 925 l 399 925 m 399 471 q 506 501 457 471 q 585 580 556 530 q 614 689 614 630 q 585 798 614 748 q 506 877 556 847 q 399 906 457 906 l 172 906 l 172 471 l 399 471 "},"I":{"x_min":132.140625,"x_max":155.28125,"ha":289,"o":"m 155 925 l 155 0 l 132 0 l 132 925 l 155 925 "},"G":{"x_min":45.328125,"x_max":877.703125,"ha":984,"o":"m 519 937 q 718 894 625 937 q 877 774 811 850 l 877 738 q 720 869 814 821 q 519 918 626 918 q 293 856 397 918 q 129 690 190 794 q 68 462 68 586 q 129 235 68 339 q 293 69 190 131 q 519 7 397 7 q 706 49 619 7 q 857 163 794 91 l 856 441 l 519 441 l 519 462 l 877 462 l 877 152 q 718 31 811 75 q 519 -11 625 -11 q 281 52 390 -11 q 108 224 172 115 q 45 462 45 333 q 108 701 45 592 q 281 873 172 810 q 519 937 390 937 "},"U":{"x_min":103.203125,"x_max":820.796875,"ha":925,"o":"m 820 347 q 772 167 820 249 q 641 36 724 84 q 462 -11 559 -11 q 281 36 363 -11 q 150 166 198 83 q 103 347 103 248 l 103 925 l 126 925 l 126 347 q 171 177 126 254 q 293 54 216 100 q 462 9 370 9 q 629 54 552 9 q 752 177 706 100 q 797 347 797 255 l 797 925 l 820 925 l 820 347 "}}}
